<svg width="116" height="116" viewBox="0 0 116 116" fill="none" xmlns="http://www.w3.org/2000/svg">
<g clip-path="url(#clip0_293_1667)">
<path d="M58 0C26.0178 0 0 26.0178 0 58C0 89.9822 26.0178 116 58 116C89.9822 116 116 89.9822 116 58C116 26.0178 89.9822 0 58 0ZM79.286 67.0528L54.0947 80.8472C52.5229 81.7378 50.7435 82.1967 48.937 82.1772C47.1306 82.1576 45.3615 81.6604 43.8093 80.736C42.2368 79.8287 40.9326 78.5212 40.0293 76.9464C39.126 75.3716 38.6559 73.5856 38.6667 71.7702V44.225C38.6667 40.4937 40.5855 37.1442 43.8093 35.2592C45.3714 34.3349 47.1502 33.8405 48.9651 33.8261C50.78 33.8116 52.5665 34.2777 54.143 35.177L79.2377 48.9182C82.6017 50.808 84.5785 54.1913 84.5785 57.9952C84.5785 61.799 82.6017 65.1823 79.2812 67.048L79.286 67.0528ZM74.9167 58C74.9167 58.4205 74.6363 58.5752 74.5977 58.6042L49.4063 72.4033C49.3145 72.4517 49.0342 72.6063 48.6958 72.3985C48.3382 72.1907 48.3382 71.8813 48.3382 71.7798V44.2347C48.3382 44.1332 48.3382 43.8238 48.6958 43.616C48.8034 43.5499 48.9272 43.5148 49.0535 43.5145C49.1959 43.5209 49.3341 43.5642 49.4547 43.6402L74.5493 57.3862C74.6412 57.4393 74.9167 57.594 74.9167 58.0145V58Z" fill="#F8F9F4"/>
</g>
<defs>
<clipPath id="clip0_293_1667">
<rect width="116" height="116" fill="white"/>
</clipPath>
</defs>
</svg>
