<svg width="80" height="80" viewBox="0 0 80 80" fill="none" xmlns="http://www.w3.org/2000/svg">
<path fill-rule="evenodd" clip-rule="evenodd" d="M38.0648 21.0171C33.2044 21.5122 28.7192 23.8597 25.5354 27.5749C22.3516 31.2901 20.7123 36.0892 20.9561 40.9813C21.1999 45.8733 23.3082 50.4847 26.8455 53.8632C30.3828 57.2417 35.079 59.1293 39.9645 59.1362C42.4703 59.1493 44.9536 58.6627 47.2701 57.7047C49.5865 56.7467 51.6898 55.3364 53.4576 53.5558C57.0187 49.9719 59.0225 45.1221 59.0324 40.0633C59.0324 39.4937 59.0324 38.8351 58.2779 38.8351H53.2801C52.5255 38.8351 52.5255 39.4937 52.5255 40.0633C52.5017 43.4137 51.1808 46.6239 48.8415 49.0168C46.4851 51.3733 43.2928 52.6968 39.9645 52.6968C36.6362 52.6968 33.4438 51.3733 31.0874 49.0168C28.7417 46.6268 27.4143 43.4162 27.3857 40.0633C27.3927 36.7199 28.72 33.5153 31.0772 31.1503C33.4344 28.7853 36.6297 27.4523 39.9645 27.4429C40.5326 27.4429 41.1895 27.4429 41.1895 26.6864V1.42792C41.2156 1.25084 41.2033 1.0702 41.1535 0.898305C41.1037 0.726412 41.0175 0.5673 40.9008 0.4318C40.7841 0.2963 40.6397 0.187594 40.4774 0.113081C40.315 0.038569 40.1386 0 39.9601 0C39.7815 0 39.6051 0.038569 39.4427 0.113081C39.2804 0.187594 39.136 0.2963 39.0193 0.4318C38.9026 0.5673 38.8165 0.726412 38.7666 0.898305C38.7168 1.0702 38.7045 1.25084 38.7306 1.42792V20.2605C38.7361 20.4464 38.6716 20.6275 38.5498 20.7677C38.4281 20.9079 38.258 20.997 38.0737 21.0171H38.0648ZM73.7683 16.6649L62.814 27.6031C62.702 27.7263 62.5646 27.8236 62.4113 27.8881C62.258 27.9527 62.0925 27.983 61.9263 27.9769H54.7803C54.3861 27.9929 54.0136 28.1621 53.7417 28.4486L40.7102 41.4428C40.5988 41.555 40.4666 41.6441 40.3209 41.7051C40.1752 41.766 40.019 41.7976 39.8611 41.798C39.7033 41.7984 39.5469 41.7676 39.4009 41.7075C39.2549 41.6473 39.1221 41.5589 39.0102 41.4472C38.8983 41.3356 38.8094 41.203 38.7486 41.0569C38.6878 40.9109 38.6563 40.7542 38.6559 40.596C38.6555 40.4377 38.6862 40.2809 38.7462 40.1345C38.8062 39.9882 38.8944 39.8551 39.0058 39.7429L51.9485 26.7843C52.1126 26.6476 52.2394 26.4714 52.317 26.2721C52.3947 26.0729 52.4206 25.8571 52.3924 25.6451V18.525C52.3969 18.3658 52.433 18.209 52.4985 18.0638C52.564 17.9187 52.6577 17.788 52.7741 17.6795L63.8526 6.63448C64.026 6.4662 64.245 6.35298 64.4822 6.30902C64.7195 6.26506 64.9644 6.29232 65.1863 6.38738C65.4081 6.48244 65.597 6.64106 65.7293 6.84335C65.8616 7.04565 65.9314 7.2826 65.9299 7.52449V13.8614C65.9287 13.961 65.9474 14.06 65.9849 14.1523C66.0224 14.2446 66.0779 14.3285 66.1482 14.399C66.2185 14.4694 66.3022 14.5251 66.3943 14.5627C66.4864 14.6003 66.585 14.6191 66.6844 14.6179H72.8984C73.1434 14.6073 73.3859 14.6719 73.5935 14.8029C73.8011 14.934 73.9639 15.1254 74.0603 15.3515C74.1567 15.5777 74.1821 15.8279 74.1331 16.0689C74.0841 16.3099 73.9631 16.5302 73.7861 16.7005L73.7683 16.6649ZM62.2281 38.7995H78.775C79.0999 38.7995 79.4115 38.9289 79.6412 39.1592C79.8709 39.3895 80 39.7019 80 40.0277C80 40.3534 79.8709 40.6658 79.6412 40.8961C79.4115 41.1265 79.0999 41.2559 78.775 41.2559H72.3569C72.2554 41.2463 72.153 41.2592 72.0571 41.2938C71.9612 41.3284 71.8741 41.3839 71.802 41.4561C71.73 41.5284 71.6747 41.6157 71.6402 41.7119C71.6056 41.808 71.5927 41.9107 71.6023 42.0124C71.1415 48.5108 68.7828 54.7294 64.8202 59.8927C60.4167 65.5114 54.2526 69.4778 47.3236 71.1513C46.7554 71.2492 46.0897 71.1513 46.0897 70.3948V61.2188C46.1114 61.065 46.1764 60.9205 46.277 60.8023C46.3776 60.6841 46.5097 60.5971 46.6578 60.5513C49.8561 59.4332 52.7626 57.6082 55.162 55.2112C59.1869 51.1999 61.4628 45.7531 61.4913 40.0633C61.4913 39.4937 61.4913 38.8351 62.2459 38.8351L62.2281 38.7995ZM41.1806 62.3135V78.8677C41.1544 79.1766 41.0136 79.4643 40.7859 79.674C40.5582 79.8836 40.2603 80 39.9512 80C39.642 80 39.3441 79.8836 39.1165 79.674C38.8888 79.4643 38.7479 79.1766 38.7217 78.8677V72.6376C38.7294 72.4513 38.6656 72.269 38.5434 72.1283C38.4213 71.9876 38.25 71.8992 38.0648 71.8811C31.2937 71.4266 24.8475 68.8024 19.677 64.3956C14.5064 59.9888 10.8853 54.0328 9.34754 47.4059C9.16112 46.8363 9.34754 46.2755 10.0044 46.2755H18.7927C18.9646 46.2628 19.1354 46.3124 19.2739 46.4153C19.4124 46.5182 19.5094 46.6676 19.5473 46.8363C20.976 51.1326 23.7165 54.8695 27.3808 57.5178C31.045 60.1661 35.4474 61.5917 39.9645 61.5926C40.5326 61.5926 41.1895 61.5926 41.1895 62.3491L41.1806 62.3135ZM17.6565 41.2203H1.22503C0.900134 41.2203 0.588542 41.0909 0.358804 40.8606C0.129065 40.6302 0 40.3178 0 39.9921C0 39.6663 0.129065 39.3539 0.358804 39.1236C0.588542 38.8933 0.900134 38.7639 1.22503 38.7639H7.64314C7.84738 38.7831 8.05143 38.7253 8.21553 38.6019C8.37963 38.4785 8.49204 38.2983 8.53085 38.0964C8.86815 31.3132 11.3465 24.813 15.6083 19.534C19.8701 14.2549 25.6947 10.4702 32.2415 8.72601C32.354 8.70554 32.4695 8.70952 32.5804 8.73768C32.6912 8.76584 32.7947 8.81752 32.8839 8.88924C32.9731 8.96095 33.0459 9.05103 33.0974 9.15338C33.1489 9.25573 33.1779 9.36797 33.1824 9.48252V19.0234C33.1969 19.1837 33.1588 19.3443 33.0738 19.4809C32.9889 19.6174 32.8618 19.7224 32.7119 19.7799C29.7353 20.8573 27.0275 22.57 24.7759 24.7996C22.7627 26.7967 21.1638 29.1737 20.0714 31.7934C18.9789 34.4132 18.4146 37.2238 18.411 40.0633C18.411 40.6329 18.411 41.2915 17.6565 41.2915V41.2203ZM49.3032 38.7639H48.0781C47.9807 38.7608 47.8844 38.7861 47.8009 38.8366C47.7175 38.8872 47.6504 38.9608 47.6076 39.0487L42.9738 43.6856C38.917 47.6907 32.8629 41.5407 36.8398 37.5712L40.8966 33.406C40.9822 33.3607 41.0539 33.2928 41.104 33.2097C41.154 33.1266 41.1805 33.0314 41.1806 32.9343V30.6648C41.1681 30.4683 41.0846 30.2831 40.9457 30.1438C40.8068 30.0046 40.6221 29.9208 40.4261 29.9083C38.3829 29.8338 36.365 30.3799 34.6367 31.4751C32.9084 32.5702 31.5505 34.1633 30.7407 36.0455C29.931 37.9277 29.7074 40.0113 30.099 42.0232C30.4907 44.035 31.4794 45.8813 32.9357 47.3201C34.3919 48.7589 36.2477 49.7231 38.2599 50.0862C40.2721 50.4494 42.3468 50.1947 44.2121 49.3554C46.0773 48.516 47.6462 47.1313 48.7131 45.3827C49.78 43.6341 50.295 41.6031 50.1909 39.556C50.1588 39.3437 50.0512 39.1503 49.8881 39.0113C49.725 38.8723 49.5172 38.797 49.3032 38.7995V38.7639Z" fill="#373737"/>
</svg>
