<svg width="60" height="60" viewBox="0 0 60 60" fill="none" xmlns="http://www.w3.org/2000/svg">
<path d="M59.6598 1.2341C59.6311 0.99668 59.5237 0.775751 59.3547 0.606644C59.1857 0.437538 58.9649 0.330022 58.7277 0.30129C54.6796 -0.191813 50.5806 -0.0761659 46.5667 0.644393C38.2855 2.06505 30.0985 6.56828 23.7513 12.7087C23.1652 13.2663 21.767 14.5883 21.2034 15.1298C17.8615 18.995 14.0097 24.1148 11.7714 28.4465C11.4478 29.1026 11.7671 29.6012 12.3178 30.0751C12.8311 30.5898 13.8157 31.5644 15.0682 32.8178C19.8576 37.6212 25.0852 42.8514 29.9078 47.6774L30.2721 48.0419C30.7789 48.5609 31.5032 48.3282 32.0272 47.9561C35.3727 46.087 38.5531 43.9362 41.5341 41.5272C53.6704 32.0158 61.8049 16.8582 59.6598 1.2341ZM45.731 26.4103C40.4445 31.8196 30.9653 27.9007 31.0521 20.3256C30.9825 12.7409 40.4123 8.82847 45.731 14.2409C49.0921 17.5937 49.0921 23.0576 45.731 26.4103ZM2.03942 31.3178C2.08228 31.3178 2.12514 31.3178 2.16799 31.3071L9.84386 30.3743C9.27278 29.2892 9.47099 27.9747 10.1439 26.9572C10.6796 25.9707 11.5571 24.4611 12.7775 22.6073C14.8025 19.4486 17.299 16.4303 19.6937 13.619L21.2355 12.1512C8.4049 12.0225 1.83692 23.3096 0.990471 30.0858C0.867254 30.7045 1.39869 31.3382 2.03942 31.3178ZM42.8831 43.1881C39.8062 45.6789 36.5216 47.9011 33.0654 49.8303C32.0786 50.508 30.6996 50.746 29.6078 50.152L28.6757 57.8332C28.5846 58.4444 29.1096 59.0491 29.7364 59.0341C31.7582 58.7371 40.872 56.9068 45.5488 48.1384C47.0146 45.3861 47.8739 41.6945 47.8289 38.731C46.2609 40.3039 44.6099 41.7917 42.8831 43.1881ZM24.062 44.8596C20.8723 41.6591 17.1994 37.9879 14.0622 34.8421L13.3336 36.3217C13.0348 36.9232 12.9319 37.6033 13.0396 38.2662C13.1472 38.9292 13.4599 39.5417 13.9336 40.0176L19.9723 46.0594C20.4465 46.5356 21.0587 46.8499 21.7218 46.9577C22.3849 47.0655 23.0651 46.9613 23.6656 46.6599L25.1431 45.9308C24.7852 45.5748 24.437 45.2199 24.062 44.8596ZM14.0514 45.9844C6.65416 39.3979 0.111882 52.3886 0.00473693 58.8615C-0.0509785 59.478 0.521176 60.0516 1.14047 59.998C7.5906 59.8897 20.5412 53.3793 14.0514 45.9844Z" fill="#373737"/>
<path d="M39.6528 13.8657C31.1433 14.0877 31.0908 26.5402 39.6528 26.7857C48.219 26.5348 48.1633 14.0866 39.6528 13.8657Z" fill="#373737"/>
</svg>
