<svg width="65" height="65" viewBox="0 0 65 65" fill="none" xmlns="http://www.w3.org/2000/svg">
<g clip-path="url(#clip0_232_990)">
<path d="M45.8258 41.7466C45.8258 37.8475 48.998 34.6753 52.8971 34.6753C62.2782 35.0638 62.2755 48.4309 52.8971 48.8179C48.9978 48.8179 45.8258 45.6457 45.8258 41.7466ZM5.03144 41.7466C5.03144 37.8475 8.20362 34.6753 12.1027 34.6753C21.4838 35.0638 21.4811 48.4309 12.1027 48.8179C8.20362 48.8179 5.03144 45.6457 5.03144 41.7466ZM25.4286 41.7466C25.4286 37.8475 28.6008 34.6753 32.4999 34.6753C41.881 35.0638 41.8783 48.4309 32.4999 48.8179C28.6008 48.8179 25.4286 45.6457 25.4286 41.7466Z" fill="#373737"/>
<path d="M45.3123 51.4978C53.0677 45.1443 65.0473 50.8093 65 60.9215V63.0964C65 64.1481 64.1474 65.0007 63.0957 65.0007H48.0839C48.3009 64.3893 48.4117 63.7453 48.4114 63.0964V60.9214C48.4114 57.3972 47.259 54.1375 45.3123 51.4978ZM12.1029 48.8186C14.9723 48.8186 17.6111 49.823 19.6878 51.4978C17.741 54.1375 16.5887 57.3972 16.5887 60.9214V63.0964C16.5884 63.7453 16.6992 64.3893 16.9162 65.0007H1.90441C0.852728 65.0007 0.000112295 64.1481 0.000112295 63.0964V60.9214C0.000112295 54.2478 5.42938 48.8186 12.1029 48.8186ZM32.5 48.8186C39.1736 48.8186 44.6028 54.248 44.6028 60.9214V63.0964C44.6028 64.1481 43.7502 65.0007 42.6986 65.0007H22.3014C21.2497 65.0007 20.3971 64.1481 20.3971 63.0964V60.9214C20.3973 54.2478 25.8265 48.8186 32.5 48.8186ZM47.4711 0.558719C48.2147 -0.184844 49.4205 -0.184971 50.1641 0.558719C50.9078 1.30241 50.9078 2.50808 50.1641 3.25177L48.1245 5.29152C47.3807 6.03534 46.175 6.03496 45.4315 5.29152C44.6878 4.54783 44.6878 3.34216 45.4315 2.59847L47.4711 0.558719ZM48.1246 16.8763L50.1643 18.9161C50.9078 19.6598 50.9078 20.8655 50.1643 21.6091C49.4203 22.353 48.2147 22.3526 47.4712 21.6091L45.4316 19.5694C44.688 18.8257 44.688 17.62 45.4316 16.8763C46.1753 16.1327 47.3808 16.1327 48.1246 16.8763ZM52.6197 12.9882H49.735C47.2084 12.8875 47.2103 9.27924 49.735 9.17958H52.6197C55.1463 9.28025 55.1444 12.8885 52.6197 12.9882ZM16.8756 5.29152L14.836 3.25177C14.0924 2.50808 14.0924 1.30241 14.836 0.558719C15.5796 -0.184844 16.7854 -0.184844 17.529 0.558719L19.5688 2.59847C20.3123 3.34216 20.3123 4.54783 19.5688 5.29152C18.8251 6.03496 17.6194 6.03534 16.8756 5.29152ZM17.529 21.6091C16.7856 22.3526 15.5799 22.3531 14.836 21.6091C14.0923 20.8655 14.0923 19.6598 14.836 18.9161L16.8756 16.8763C17.6193 16.1327 18.8249 16.1327 19.5686 16.8763C20.3123 17.62 20.3123 18.8257 19.5686 19.5694L17.529 21.6091ZM17.1693 11.0839C17.1693 12.1355 16.3167 12.9882 15.2651 12.9882H12.3804C9.85381 12.8875 9.85572 9.27924 12.3804 9.17958H15.2651C16.3167 9.17958 17.1693 10.0322 17.1693 11.0839ZM38.4837 24.3421C38.154 32.2822 26.8429 32.2761 26.5163 24.3421V24.0713H38.4837V24.3421ZM38.4837 20.2627H26.5163C26.5163 19.0469 26.0414 17.8884 25.2109 16.9996C19.1347 10.6686 23.7209 -0.0223445 32.5002 0.00101478C41.2791 -0.0223445 45.8658 10.67 39.7892 16.9996C38.9586 17.8884 38.4837 19.0469 38.4837 20.2627Z" fill="#373737"/>
</g>
<defs>
<clipPath id="clip0_232_990">
<rect width="65" height="65" fill="white" transform="matrix(-1 0 0 1 65 0)"/>
</clipPath>
</defs>
</svg>
