<svg width="38" height="34" viewBox="0 0 38 34" fill="none" xmlns="http://www.w3.org/2000/svg">
<path d="M37.0902 27.3542V4.55903C37.0902 3.3499 36.6017 2.19029 35.7322 1.33531C34.8628 0.480325 33.6835 0 32.4539 0H4.63627C3.40666 0 2.2274 0.480325 1.35793 1.33531C0.488463 2.19029 0 3.3499 0 4.55903L0 27.3542H16.9997V30.3935H9.27254V33.4329H27.8176V30.3935H20.0905V27.3542H37.0902ZM13.9629 15.1968H4.63627V12.1574H12.3093L16.4186 6.09694L21.0548 15.215L23.1273 12.1574H32.4539V15.1968H24.7809L20.6716 21.2572L16.0353 12.1392L13.9629 15.1968Z" fill="#7D7D7D"/>
</svg>
