<svg width="38" height="37" viewBox="0 0 38 37" fill="none" xmlns="http://www.w3.org/2000/svg">
<path d="M16.9997 0H4.63627C2.08014 0 0 2.04549 0 4.55903V36.4722H21.6359V4.55903C21.6359 2.04549 19.5558 0 16.9997 0ZM9.27254 28.8739H6.18169V25.8345H9.27254V28.8739ZM9.27254 22.7952H6.18169V19.7558H9.27254V22.7952ZM15.4542 28.8739H12.3634V25.8345H15.4542V28.8739ZM15.4542 22.7952H12.3634V19.7558H15.4542V22.7952ZM15.4542 12.1574H12.3634V15.1968H9.27254V12.1574H6.18169V9.11806H9.27254V6.07871H12.3634V9.11806H15.4542V12.1574ZM32.4539 7.59838H24.7268V13.6771H27.8176V16.7164H30.9085V19.7558H27.8176V22.7952H24.7268V36.4722H37.0902V12.1574C37.0902 9.64387 35.01 7.59838 32.4539 7.59838ZM30.9085 28.8739H27.8176V25.8345H30.9085V28.8739Z" fill="#7D7D7D"/>
</svg>
