<svg width="38" height="37" viewBox="0 0 38 37" fill="none" xmlns="http://www.w3.org/2000/svg">
<path d="M37.0903 28.8739C37.0903 29.2769 36.9275 29.6634 36.6376 29.9484C36.3478 30.2334 35.9547 30.3935 35.5449 30.3935H30.9086V34.9526C30.9086 35.3556 30.7458 35.7421 30.456 36.0271C30.1661 36.3121 29.773 36.4722 29.3632 36.4722C28.9533 36.4722 28.5602 36.3121 28.2704 36.0271C27.9806 35.7421 27.8177 35.3556 27.8177 34.9526V30.3935H23.1815C22.7716 30.3935 22.3785 30.2334 22.0887 29.9484C21.7989 29.6634 21.6361 29.2769 21.6361 28.8739C21.6361 28.4708 21.7989 28.0843 22.0887 27.7993C22.3785 27.5143 22.7716 27.3542 23.1815 27.3542H27.8177V22.7952C27.8177 22.3921 27.9806 22.0056 28.2704 21.7206C28.5602 21.4356 28.9533 21.2755 29.3632 21.2755C29.773 21.2755 30.1661 21.4356 30.456 21.7206C30.7458 22.0056 30.9086 22.3921 30.9086 22.7952V27.3542H35.5449C35.9547 27.3542 36.3478 27.5143 36.6376 27.7993C36.9275 28.0843 37.0903 28.4708 37.0903 28.8739ZM8.49995 10.6377C11.4826 10.6377 13.9089 8.25185 13.9089 5.31887C13.9089 2.38589 11.4826 0 8.49995 0C5.51728 0 3.09097 2.38589 3.09097 5.31887C3.09097 8.25185 5.51728 10.6377 8.49995 10.6377ZM23.9542 10.6377C26.9369 10.6377 29.3632 8.25185 29.3632 5.31887C29.3632 2.38589 26.9369 0 23.9542 0C20.9715 0 18.5452 2.38589 18.5452 5.31887C18.5452 8.25185 20.9715 10.6377 23.9542 10.6377ZM10.8181 17.4763C10.8181 20.4093 13.2444 22.7952 16.2271 22.7952C19.2097 22.7952 21.6361 20.4093 21.6361 17.4763C21.6361 14.5433 19.2097 12.1574 16.2271 12.1574C13.2444 12.1574 10.8181 14.5433 10.8181 17.4763ZM7.72724 17.4763C7.72724 15.5113 8.42422 13.706 9.58329 12.2775C9.22368 12.2359 8.86203 12.2136 8.49995 12.2106C3.76477 12.2106 -0.0246065 15.3396 0.000120325 19.7983C0.0047566 20.6205 0.718742 21.2755 1.55482 21.2755H8.66686C8.05106 20.1006 7.72791 18.7981 7.72724 17.4763ZM18.5452 28.8739C18.5452 27.4089 19.2638 26.1172 20.3595 25.2829C19.07 24.675 17.6571 24.3622 16.2271 24.368C11.4919 24.368 7.70251 27.497 7.72724 31.9558C7.73187 32.7779 8.44586 33.4329 9.28193 33.4329H23.1753C21.9471 33.4301 20.7702 32.9487 19.9023 32.0941C19.0344 31.2396 18.5464 30.0816 18.5452 28.8739ZM22.8708 12.2775C23.8913 13.5299 24.521 15.0461 24.6839 16.6429C24.8468 18.2397 24.5359 19.8487 23.7888 21.2755H25.0128C25.3305 20.3892 25.9194 19.6212 26.6985 19.077C27.4777 18.5329 28.409 18.2391 29.3647 18.2361C30.547 18.2361 31.6164 18.6875 32.4355 19.4063C32.2346 15.1603 28.4529 12.2121 23.9557 12.2121C23.5864 12.2121 23.2278 12.241 22.8724 12.2775H22.8708Z" fill="#7D7D7D"/>
</svg>
